<svg xmlns="http://www.w3.org/2000/svg" viewBox="0 0 64 64" aria-hidden="true">
  <defs>
    <linearGradient id="db" x1="0" y1="0" x2="0" y2="1">
      <stop offset="0" stop-color="#0b3d91"/>
      <stop offset="1" stop-color="#0a6b68"/>
    </linearGradient>
  </defs>
  <g transform="translate(-5.5 -4.5)">
    <ellipse cx="32" cy="16" rx="22" ry="8" fill="url(#db)"/>
    <path d="M10 16v32c0 4.4 9.9 8 22 8s22-3.6 22-8V16" fill="url(#db)"/>
    <ellipse cx="32" cy="48" rx="22" ry="8" fill="url(#db)"/>
    <ellipse cx="32" cy="16" rx="22" ry="8" fill="none" stroke="#ffffff" stroke-opacity="0.8" stroke-width="2"/>
    <path d="M10 32c0 4.4 9.9 8 22 8s22-3.6 22-8" fill="none" stroke="#ffffff" stroke-opacity="0.6" stroke-width="2"/>
    <path d="M10 48c0 4.4 9.9 8 22 8s22-3.6 22-8" fill="none" stroke="#ffffff" stroke-opacity="0.6" stroke-width="2"/>
    <g>
      <circle cx="50" cy="50" r="17" fill="#6a3df0" stroke="#ffffff" stroke-width="2"/>
      <circle cx="50" cy="44.5" r="5.4" fill="#ffffff"/>
      <ellipse cx="50" cy="60.5" rx="9" ry="7.5" fill="#ffffff"/>
      <ellipse cx="50" cy="62" rx="10" ry="4" fill="#ffffff"/>
      <path d="M39 63c3.6-7.2 8.4-10 11-10s7.4 2.8 11 10" fill="none" stroke="#ffffff" stroke-width="2" stroke-linecap="round"/>
    </g>
  </g>
</svg>
